<?xml version="1.0" encoding="utf-8"?>
<!-- Generator: Adobe Illustrator 25.0.0, SVG Export Plug-In . SVG Version: 6.00 Build 0)  -->
<svg version="1.1" id="Capa_1" xmlns="http://www.w3.org/2000/svg" xmlns:xlink="http://www.w3.org/1999/xlink" x="0px" y="0px"
	 viewBox="0 0 1920 1080" style="enable-background:new 0 0 1920 1080;" xml:space="preserve">
<style type="text/css">
	.st0{fill:#FFFFFF;}
	.st1{fill:url(#SVGID_1_);}
	.st2{fill:url(#SVGID_2_);}
</style>
<g>
	<g>
		<g>
			<g>
				<path class="st0" d="M791.14,533.69c0,5.61-4.57,10.07-10.07,10.07c-4.05,0-7.37-2.39-8.93-6.02
					c-4.15-10.38-14.12-15.05-24.6-15.05c-15.57,0-25.64,9.96-26.89,24.71c-0.52,6.23-0.52,17.54,0,23.57
					c1.35,15.15,11.31,25.02,26.89,25.02c10.48,0,20.45-4.67,24.6-15.05c1.56-3.53,4.88-6.02,8.93-6.02
					c5.5,0,10.07,4.57,10.07,10.17c0,12.15-16.3,31.04-43.91,31.04c-26.37,0-45.47-18.58-47.23-43.18c-0.62-7.37-0.62-19.41,0-27.82
					c1.35-24.81,20.97-42.46,47.23-42.46C774.84,502.65,791.14,521.44,791.14,533.69z"/>
				<path class="st0" d="M805.47,573.55c-0.83-8.72-0.83-19.72,0-28.44c2.28-24.6,21.18-42.46,47.54-42.46
					c26.26,0,45.26,17.85,47.54,42.46c0.83,8.72,0.83,19.72,0,28.44c-2.28,24.39-21.28,42.56-47.54,42.56
					C826.65,616.11,807.76,597.94,805.47,573.55z M880,571.47c0.73-8.51,0.62-16.71,0-24.19c-1.35-14.53-11.32-24.5-26.99-24.5
					c-15.78,0-25.74,9.96-26.99,24.5c-0.73,7.47-0.83,15.68,0,24.19c1.25,14.74,11.21,24.4,26.99,24.4
					C868.69,595.87,878.65,586.21,880,571.47z"/>
				<path class="st0" d="M1009.04,476.6v118.75c0,3.63-0.73,5.71-3.95,7.89c-5.29,3.94-22.21,12.87-42.04,12.87
					c-28.13,0-44.95-17.13-47.13-42.77c-0.62-7.16-0.73-21.9,0-29.17c2.28-25.85,17.65-41.52,44.43-41.52
					c10.17,0,20.87,2.91,27.82,5.92V476.6c0-6.02,4.77-10.8,10.48-10.8C1004.58,465.8,1009.04,470.57,1009.04,476.6z M936.69,546.35
					c-0.52,5.61-0.62,18.27,0,24.81c1.45,16.09,10.28,24.5,26.78,24.5c9.13,0,20.66-4.47,24.71-7.68v-58.65
					c-4.36-2.7-15.36-6.64-26.68-6.64C945.51,522.69,938.04,530.99,936.69,546.35z"/>
				<path class="st0" d="M1122.92,548.53v6.23c0,7.58-4.05,12.77-13.39,12.77h-59.69v3.12c0,17.23,12.15,26.47,28.96,26.47
					c9.24,0,16.3-1.56,21.9-4.15c2.91-1.35,5.09-2.08,7.16-2.08c4.98,0,9.24,4.15,9.24,9.34c0,3.43-1.77,6.85-6.64,9.24
					c-7.27,3.53-18.48,6.64-32.28,6.64c-28.86,0-46.3-18.27-48.17-44.64c-0.52-7.78-0.42-19.1,0.1-25.64
					c2.08-26.68,20.87-43.18,47.02-43.18C1104.86,502.65,1122.92,521.13,1122.92,548.53z M1049.84,551.75h50.97
					c1.87,0,2.6-0.73,2.7-2.8c1.14-17.03-9.65-28.24-26.26-28.24C1058.57,520.71,1049.53,532.65,1049.84,551.75z"/>
				<path class="st0" d="M1195.08,504.73c4.15,1.14,8.51,3.84,8.51,9.96c0,5.61-4.05,10.17-9.45,10.17c-1.87,0-4.26-0.52-6.85-1.04
					c-1.77-0.31-4.57-0.73-8.51-0.73c-10.59,0-15.99,4.88-15.99,16.5v64.88c0,5.81-4.46,10.59-10.38,10.59
					c-5.71,0-10.49-4.77-10.49-10.59v-68.1c0-20.87,12.25-33.74,34.88-33.74C1184.18,502.65,1191.13,503.59,1195.08,504.73z"/>
				<path class="st0" d="M1280.06,467.46c4.98,1.66,7.68,5.09,7.68,9.34c0,5.19-4.05,9.34-9.55,9.34c-1.56,0-3.32-0.42-4.88-0.83
					c-2.8-0.73-6.54-1.45-11.42-1.45c-10.48,0-14.95,6.44-14.95,17.44v6.23h27.2c5.19,0,9.86,4.05,9.86,9.76
					c0,5.09-4.67,9.24-9.86,9.24h-27.2v77.75c0,6.13-4.36,10.8-10.48,10.8c-5.61,0-10.38-4.67-10.38-10.8v-77.75h-6.33
					c-5.61,0-9.97-4.15-9.97-9.24c0-5.71,4.36-9.76,9.97-9.76h6.33v-7.47c0-22.11,12.35-35.5,34.57-35.5
					C1266.78,464.55,1274.46,465.49,1280.06,467.46z M1327.71,476.6v127.78c0,5.92-4.46,10.69-10.38,10.69
					c-5.71,0-10.38-4.77-10.38-10.69V476.6c0-6.02,4.57-10.9,10.38-10.9C1323.04,465.7,1327.71,470.57,1327.71,476.6z"/>
				<path class="st0" d="M1348.89,573.55c-0.83-8.72-0.83-19.72,0-28.44c2.28-24.6,21.18-42.46,47.54-42.46
					c26.26,0,45.26,17.85,47.54,42.46c0.83,8.72,0.83,19.72,0,28.44c-2.28,24.39-21.28,42.56-47.54,42.56
					C1370.07,616.11,1351.18,597.94,1348.89,573.55z M1423.43,571.47c0.73-8.51,0.62-16.71,0-24.19
					c-1.35-14.53-11.32-24.5-26.99-24.5c-15.78,0-25.74,9.96-26.99,24.5c-0.73,7.47-0.83,15.68,0,24.19
					c1.25,14.74,11.21,24.4,26.99,24.4C1412.11,595.87,1422.08,586.21,1423.43,571.47z"/>
				<path class="st0" d="M1609.56,513.97c0,1.77-0.52,3.94-0.83,5.09l-22.22,80.76c-2.6,10.38-9.65,15.26-18.06,15.26
					c-8.62,0-15.78-4.88-18.27-15.36l-17.75-71.21c-0.21-0.62-0.62-0.83-1.04-0.83c-0.42,0-0.83,0.21-1.04,0.83l-18.17,71.11
					c-2.49,10.59-9.34,15.47-17.96,15.47c-8.72,0-15.47-4.88-18.17-15.26l-22.22-80.76c-0.31-1.14-0.83-3.32-0.83-5.09
					c0-5.71,4.67-10.38,10.38-10.38c4.57,0,8.93,3.01,10.07,8.1c7.06,27.51,13.91,54.5,20.45,82.42c0.1,0.62,0.62,1.04,1.04,1.04
					c0.42,0,0.83-0.42,1.04-1.04c6.02-25.95,12.04-51.7,18.37-76.2c2.18-9.24,9.13-14.32,17.02-14.32c8.1,0,14.84,5.4,17.03,14.43
					c6.44,24.92,12.46,50.56,18.48,76.09c0.21,0.62,0.62,1.04,1.04,1.04c0.42,0,0.83-0.42,1.04-1.04
					c6.33-27.41,13.08-54.81,20.14-82.42c1.14-5.09,5.5-8.1,10.07-8.1C1604.89,503.59,1609.56,508.26,1609.56,513.97z"/>
			</g>
		</g>
	</g>
	<g>
		<linearGradient id="SVGID_1_" gradientUnits="userSpaceOnUse" x1="310.4401" y1="540.3333" x2="529.1148" y2="540.3333">
			<stop  offset="0" style="stop-color:#D46CFF"/>
			<stop  offset="0.1711" style="stop-color:#CF67FF"/>
			<stop  offset="0.3856" style="stop-color:#C157FF"/>
			<stop  offset="0.6233" style="stop-color:#AB3EFF"/>
			<stop  offset="0.8759" style="stop-color:#8B1AFF"/>
			<stop  offset="1" style="stop-color:#7906FF"/>
		</linearGradient>
		<path class="st1" d="M512.48,573.31c-7.85,0-16.35,3.24-24.57,9.37c-2.58,1.93-5.17,4.01-7.92,6.23l-2.15,1.73
			c-4.92,3.95-10.72,8.49-17.3,12.4c-11.31,6.73-24.05,10.29-36.86,10.29c-9.95,0-19.57-2.1-28.58-6.25
			c-22.89-10.53-39.31-33.6-41.84-58.77c-2.5-24.84,8.77-50.7,28.72-65.89c12.78-9.73,28.72-15.09,44.88-15.09h0
			c13.25,0,25.8,3.66,36.29,10.59c7.54,4.98,13.29,11,18.37,16.32c4.86,5.09,9.06,9.49,13.31,11.43c3.96,1.81,8.15,2.72,12.47,2.72
			c5.48,0,10.87-1.51,15.6-4.37c1.85-1.12,3.72-2.43,5.59-3.82c-16.18-42.43-57.22-72.58-105.33-72.58
			c-62.25,0-112.71,50.46-112.71,112.71c0,62.25,50.46,112.71,112.71,112.71c48.73,0,90.23-30.92,105.96-74.22
			c-0.79-0.52-1.57-1.03-2.36-1.49C522.18,574.63,517.51,573.31,512.48,573.31z"/>
		<g>
			<linearGradient id="SVGID_2_" gradientUnits="userSpaceOnUse" x1="374.2403" y1="540.3333" x2="646.4541" y2="540.3333">
				<stop  offset="0" style="stop-color:#00C4FF"/>
				<stop  offset="0.9944" style="stop-color:#44FAE3"/>
			</linearGradient>
			<path class="st2" d="M634.09,506.46c-9.66-10.98-24.61-17.15-39.37-17.15c-6.64,0-13.23,1.25-19.29,3.86
				c-15.58,6.72-26.79,20.06-41.07,28.83c-0.14,0.09-0.28,0.18-0.43,0.27c-8.17,4.94-17.38,7.45-26.63,7.45
				c-7.24,0-14.51-1.54-21.32-4.65c-14.13-6.45-21.85-20.96-34.57-29.35c-7.32-4.83-15.9-7.06-24.54-7.06
				c-11.41,0-22.96,3.87-31.96,10.73c-14.14,10.77-22.2,29.1-20.42,46.79c1.78,17.69,13.39,34.1,29.54,41.53
				c6.32,2.91,13,4.3,19.67,4.3c9,0,17.96-2.53,25.95-7.29c5.26-3.13,10.09-6.88,14.87-10.72c3.53-2.83,7.03-5.71,10.66-8.41
				c11.28-8.42,24.22-13.6,37.31-13.6c7.41,0,14.87,1.66,22.11,5.34c1.01,0.51,2.02,1.07,3.03,1.66
				c15.15,8.97,26.57,23.77,43.77,29.26c4.63,1.48,9.46,2.19,14.29,2.19c16.92,0,33.93-8.64,43.12-22.97
				C650.61,549.04,648.53,522.9,634.09,506.46z"/>
		</g>
	</g>
</g>
</svg>
